<?xml version="1.0" ?><!DOCTYPE svg  PUBLIC '-//W3C//DTD SVG 1.1//EN'  'http://www.w3.org/Graphics/SVG/1.1/DTD/svg11.dtd'><svg enable-background="new 0 0 100 100" height="100px" version="1.1" viewBox="0 0 100 100" width="100px" xml:space="preserve" xmlns="http://www.w3.org/2000/svg" xmlns:xlink="http://www.w3.org/1999/xlink"><g id="color_x5F_fill"><path d="M92.938,82.146c-0.109-6.002,0.454-32.354,0.181-39.309c-0.248-6.314,0.092-33.289,0.018-35.879   c0,0-36.228-0.438-38.871-0.363c-4.183,0.117-8.256-0.008-12.393,0c-5.826,0.012-11.764-0.42-17.619-0.18   c-2.9,0.117-17.445,0.18-17.445,0.18c0,2.975-0.047,7.061,0.181,9.986c0.597,7.674-0.04,76.871-0.04,76.871   c3.82,0.002,17.323,0,21.158,0c8.002,0,15.69,0.121,23.633,0.182c13.748,0.102,27.724-0.182,41.198-0.182l0.081-1.59   C92.592,88.232,93.001,85.578,92.938,82.146z M80.088,36.237c-1.132,1.067-2.543,2.984-3.989,3.584   c0.278,1.314-0.001,2.837-0.265,4.152c-0.301,1.498-0.059,3.134-0.519,4.583c-0.487,1.538-0.632,3.132-1.146,4.665   c-0.595,1.772-1.646,3.622-2.67,5.164c-0.887,1.334-1.495,2.759-2.349,4.08c-0.982,1.521-2.335,2.477-3.483,3.759   c-1.72,1.918-4.117,3.51-6.333,5.001c-1.833,1.234-3.973,1.77-5.981,2.685c-0.787,0.359-1.741,0.655-2.602,0.876   c-0.775,0.2-2.084,0.688-2.917,0.688l-1.5,0.258c-0.607,0.056-2.129-0.059-2.917-0.008c-0.787,0.051-1.544-0.168-2.351-0.167   c-1.976,0.004-3.956-0.059-5.901-0.315c-3.389-0.446-7.294-1.963-10.083-3.955c-0.503-0.359-0.886-0.866-1.386-1.233   c2.923,0.686,6.608,0.578,9.392-0.667c1.543-0.69,3.295-0.996,4.68-1.973c1.064-0.751,2.31-1.56,3.394-2.17   c-2.501-0.234-4.81-0.963-7.081-2.163c-1.12-0.591-4.079-3.856-4.066-6.344c1.737-0.032,3.302,0.202,5.063-0.031   c-1.243-0.331-2.276-0.873-3.414-1.629c-1.281-0.852-2.354-1.484-3.681-2.931c-1.559-1.701-2.062-4.967-1.886-7.327   c0.805,0.081,1.476,0.592,2.256,0.824c0.808,0.24,1.764,0.208,2.533,0.588c-2.558-0.833-3.873-4.916-4.533-7.191   c-0.769-2.648,0.863-8.649,0.917-8.804c1.994,1.516,3.455,3.799,5.461,5.181c1.16,0.799,2.479,1.681,3.604,2.475   c0.57,0.403,1.001,0.589,1.581,1.021c0.504,0.375,1.274,0.642,1.836,0.894c1.445,0.65,3.246,1.359,4.833,1.65   c1.863,0.342,3.834,0.415,5.583,1.019l2.084,0.25c-0.577-2.282-0.262-5.319,0.437-7.663c0.808-2.71,3.567-5.023,6.043-6.191   c2.309-1.09,6.114-1.58,8.521-0.65c1.231,0.475,2.505,1.036,3.649,1.673c1.066,0.594,1.589,1.965,2.767,1.812   c2.072-0.268,5.249-1.551,6.504-3.369c-0.051,3.205-1.94,5.092-4.331,7.038c1.956-0.571,4.282-0.736,6.149-1.56   C81.486,34.817,80.909,35.463,80.088,36.237z" fill="#1DA1F2"/></g><g id="offset_x5F_print_x5F_outline"/></svg>